<?xml version="1.0" encoding="utf-8"?>
<!-- Generator: Adobe Illustrator 23.0.5, SVG Export Plug-In . SVG Version: 6.00 Build 0)  -->
<svg version="1.1" id="Layer_1" xmlns="http://www.w3.org/2000/svg" xmlns:xlink="http://www.w3.org/1999/xlink" x="0px" y="0px"
	 viewBox="0 0 92 29" style="enable-background:new 0 0 92 29;" xml:space="preserve">
<style type="text/css">
	.st0{fill:url(#SVGID_1_);}
	.st1{fill:#1544EF;}
	.st2{fill:#FFFFFF;}
</style>
<linearGradient id="SVGID_1_" gradientUnits="userSpaceOnUse" x1="20.5925" y1="25.1875" x2="8.0925" y2="12.6875" gradientTransform="matrix(1 0 0 -1 0 29.28)">
	<stop  offset="0" style="stop-color:#FFFFFF"/>
	<stop  offset="1" style="stop-color:#999999"/>
</linearGradient>
<path class="st0" d="M8.8,4h11.9v11.9H8.8V4z"/>
<path class="st1" d="M0,13.1h11.9V25H0V13.1z"/>
<path class="st2" d="M41.8,13l3-4.6l-3.1-4.7h2.5l2,3.2l2-3.2h2.5l-3.1,4.7l3.1,4.6h-2.5l-2-3.1l-2,3.1H41.8L41.8,13z M27.7,13
	c-1.4-3.1-2.8-6.2-4.2-9.4h2.4c0.7,1.5,1.3,3,2,4.5c0.6-1.5,1.2-3,1.8-4.5H32C30.6,6.8,29.1,9.9,27.7,13C28.1,13,28.1,13,27.7,13
	c0-1,0-1,0.1-3.1C27.7,12,27.7,12,27.7,13z M51.7,13V3.7H58v1.9h-4.2v1.6h4v1.9h-4v1.9H58V13H51.7z M59.6,13V3.7h2.1v7.4h3.8V13
	C65.6,13,59.6,13,59.6,13z M25.2,24.6v-9.3h3.3c2.2,0,3.2,0.9,3.2,2.8c0,1.9-1.1,2.8-3.2,2.8h-1.2v3.8
	C27.3,24.6,25.2,24.6,25.2,24.6z M27.3,18.9h1c0.9,0,1.4-0.1,1.4-0.9c0-0.7-0.4-0.8-1.4-0.8h-1V18.9z M37.2,13c-2.7,0-4.6-2-4.6-4.9
	c0-3,1.9-4.9,4.6-4.9c2.7,0,4.6,2,4.6,4.9C41.8,11,39.9,13,37.2,13z M36.6,24.8c-2.7,0-4.6-2-4.6-4.9c0-3,1.9-4.9,4.6-4.9
	c2.7,0,4.6,2,4.6,4.9C41.2,22.8,39.3,24.8,36.6,24.8z M37.2,11c1.5,0,2.5-1.1,2.5-2.9c0-1.8-1-2.9-2.5-2.9c-1.5,0-2.5,1.1-2.5,2.9
	C34.7,9.9,35.7,11,37.2,11z M36.6,22.8c1.5,0,2.5-1.1,2.5-2.9c0-1.8-1-2.9-2.5-2.9c-1.5,0-2.5,1.1-2.5,2.9
	C34.2,21.7,35.1,22.8,36.6,22.8z M45.2,24.8c-1.9,0-3.5-1.2-3.8-3l2.1-0.5c0.1,1.1,0.8,1.6,1.7,1.6c0.7,0,1.2-0.3,1.2-1
	c0-0.4-0.4-0.8-1.7-1.2c-2-0.8-2.7-1.5-2.7-3c0-1.6,1.2-2.7,3.1-2.7c1.3,0,2.3,0.6,3,1.8l-1.7,1.1c-0.3-0.7-0.7-1-1.3-1
	c-0.5,0-0.9,0.3-0.9,0.8c0,0.5,0.4,0.8,1.7,1.3c2,0.8,2.7,1.4,2.7,2.8C48.6,23.5,47.2,24.8,45.2,24.8L45.2,24.8z M49.7,24.6v-9.3
	h2.1v9.3H49.7z M55.5,24.6v-7.4h-2.7v-1.9h7.6v1.9h-2.7v7.4H55.5z M61.2,24.6v-9.3h2.1v9.3H61.2z M69.1,24.8c-2.7,0-4.6-2-4.6-4.9
	c0-3,1.9-4.9,4.6-4.9c2.7,0,4.6,2,4.6,4.9C73.7,22.9,71.8,24.8,69.1,24.8z M69.1,22.8c1.5,0,2.5-1.1,2.5-2.9c0-1.8-1-2.9-2.5-2.9
	c-1.5,0-2.5,1.1-2.5,2.9C66.6,21.7,67.6,22.8,69.1,22.8z M80.6,15.2h2.1v9.3h-2.2L77,18.8v5.7h-2.1v-9.3h2.1l3.5,5.7
	C80.6,20.9,80.6,15.2,80.6,15.2z M87.4,24.8c-1.9,0-3.5-1.2-3.8-3l2.1-0.5c0.1,1.1,0.8,1.6,1.7,1.6c0.7,0,1.2-0.3,1.2-1
	c0-0.4-0.4-0.8-1.7-1.2c-2-0.8-2.7-1.5-2.7-3c0-1.6,1.2-2.7,3.1-2.7c1.3,0,2.3,0.6,2.9,1.8l-1.7,1.1c-0.3-0.7-0.7-1-1.3-1
	c-0.5,0-0.9,0.3-0.9,0.8c0,0.5,0.4,0.8,1.7,1.3c2,0.8,2.7,1.4,2.7,2.8C90.8,23.5,89.3,24.8,87.4,24.8L87.4,24.8z"/>
</svg>
